<svg width="30" height="30" viewBox="0 0 30 30" fill="none" xmlns="http://www.w3.org/2000/svg">
<g clip-path="url(#clip0_301_3383)">
<path d="M27.0703 2.57812H24.2773V1.75781C24.2773 0.788555 23.4888 0 22.5195 0C21.5503 0 20.7617 0.788555 20.7617 1.75781V2.57812H10.9179V1.75781C10.9179 0.788555 10.1294 0 9.16014 0C8.19088 0 7.40232 0.788555 7.40232 1.75781V2.5998C7.35252 2.58604 7.30031 2.57812 7.24611 2.57812H4.9115C3.29607 2.57812 1.98182 3.89238 1.98182 5.50781V15.4883C1.98182 15.8119 2.2442 16.0742 2.56775 16.0742C2.89131 16.0742 3.15369 15.8119 3.15369 15.4883V8.61328H24.2773C24.6009 8.61328 24.8633 8.35096 24.8633 8.02734C24.8633 7.70373 24.6009 7.44141 24.2773 7.44141H3.15369V5.50781C3.15369 4.53855 3.94225 3.75 4.9115 3.75H7.24611C7.30031 3.75 7.35252 3.74203 7.40232 3.72832V4.48242C7.40232 5.45168 8.19088 6.24023 9.16014 6.24023C10.1294 6.24023 10.9179 5.45168 10.9179 4.48242V3.75H20.7617V4.48242C20.7617 5.45168 21.5503 6.24023 22.5195 6.24023C23.4888 6.24023 24.2773 5.45168 24.2773 4.48242V3.75H27.0703C28.0396 3.75 28.8281 4.53855 28.8281 5.50781V27.7731C28.8281 28.3548 28.3549 28.8281 27.7731 28.8281C27.1913 28.8281 26.718 28.3548 26.718 27.7731V26.2573C26.718 25.9337 26.4557 25.6714 26.1321 25.6714H19.3164C18.9929 25.6714 18.7305 25.9337 18.7305 26.2573C18.7305 26.5809 18.9929 26.8433 19.3164 26.8433H25.5462V27.7731C25.5462 28.1546 25.6427 28.5139 25.8125 28.8281H2.22656C1.64502 28.8281 1.17188 28.355 1.17188 27.7734V26.8433H14.2866C14.6102 26.8433 14.8726 26.5809 14.8726 26.2573C14.8726 25.9337 14.6102 25.6714 14.2866 25.6714H8.43217C9.45603 24.7896 10.1062 23.4853 10.1062 22.0312C10.1062 19.3819 7.95082 17.2266 5.3015 17.2266C2.65219 17.2266 0.496816 19.3819 0.496816 22.0312C0.496816 23.4853 1.14697 24.7896 2.17084 25.6714H0.585938C0.262383 25.6714 0 25.9337 0 26.2573V27.7734C0 29.0012 0.998848 30 2.22656 30H27.7731C29.001 30 30 29.001 30 27.7731V5.50781C30 3.89238 28.6857 2.57812 27.0703 2.57812ZM9.74607 4.48242C9.74607 4.80551 9.48322 5.06836 9.16014 5.06836C8.83705 5.06836 8.5742 4.80551 8.5742 4.48242V1.75781C8.5742 1.43473 8.83705 1.17188 9.16014 1.17188C9.48322 1.17188 9.74607 1.43473 9.74607 1.75781V4.48242ZM23.1054 4.48242C23.1054 4.80551 22.8426 5.06836 22.5195 5.06836C22.1964 5.06836 21.9336 4.80551 21.9336 4.48242V1.75781C21.9336 1.43473 22.1964 1.17188 22.5195 1.17188C22.8426 1.17188 23.1054 1.43473 23.1054 1.75781V4.48242ZM1.66869 22.0312C1.66869 20.0281 3.29836 18.3984 5.3015 18.3984C7.30465 18.3984 8.93432 20.0281 8.93432 22.0312C8.93432 24.0344 7.30465 25.6641 5.3015 25.6641C3.29836 25.6641 1.66869 24.0344 1.66869 22.0312Z" fill="white"/>
<path d="M27.44 7.61309C27.331 7.5041 27.1799 7.44141 27.0258 7.44141C26.8716 7.44141 26.7205 7.5041 26.6115 7.61309C26.5025 7.72207 26.4398 7.87324 26.4398 8.02734C26.4398 8.18145 26.5025 8.33262 26.6115 8.4416C26.7205 8.55059 26.8716 8.61328 27.0258 8.61328C27.1799 8.61328 27.331 8.55059 27.44 8.4416C27.5489 8.33262 27.6117 8.18145 27.6117 8.02734C27.6117 7.87324 27.549 7.72207 27.44 7.61309Z" fill="white"/>
<path d="M17.4989 25.843C17.39 25.734 17.2388 25.6719 17.0847 25.6719C16.9306 25.6719 16.7794 25.734 16.6705 25.843C16.5615 25.9525 16.4988 26.1031 16.4988 26.2572C16.4988 26.4119 16.5614 26.5625 16.6705 26.6721C16.7794 26.7811 16.9306 26.8432 17.0847 26.8432C17.2388 26.8432 17.39 26.7811 17.4989 26.6721C17.6079 26.5625 17.6707 26.4113 17.6707 26.2572C17.6707 26.1031 17.608 25.9525 17.4989 25.843Z" fill="white"/>
<path d="M13.2566 17.8125C12.0289 17.8125 11.03 18.8113 11.03 20.0391C11.03 21.2668 12.0289 22.2656 13.2566 22.2656C14.4843 22.2656 15.4832 21.2668 15.4832 20.0391C15.4832 18.8113 14.4843 17.8125 13.2566 17.8125ZM13.2566 21.0938C12.675 21.0938 12.2019 20.6206 12.2019 20.0391C12.2019 19.4575 12.675 18.9844 13.2566 18.9844C13.8381 18.9844 14.3113 19.4575 14.3113 20.0391C14.3113 20.6206 13.8381 21.0938 13.2566 21.0938Z" fill="white"/>
<path d="M18.7252 17.8125C17.4975 17.8125 16.4987 18.8113 16.4987 20.0391C16.4987 21.2668 17.4975 22.2656 18.7252 22.2656C19.9529 22.2656 20.9518 21.2668 20.9518 20.0391C20.9518 18.8113 19.9529 17.8125 18.7252 17.8125ZM18.7252 21.0938C18.1437 21.0938 17.6705 20.6206 17.6705 20.0391C17.6705 19.4575 18.1437 18.9844 18.7252 18.9844C19.3068 18.9844 19.7799 19.4575 19.7799 20.0391C19.7799 20.6206 19.3068 21.0938 18.7252 21.0938Z" fill="white"/>
<path d="M24.1941 17.8125C22.9664 17.8125 21.9675 18.8113 21.9675 20.0391C21.9675 21.2668 22.9664 22.2656 24.1941 22.2656C25.4218 22.2656 26.4207 21.2668 26.4207 20.0391C26.4207 18.8113 25.4218 17.8125 24.1941 17.8125ZM24.1941 21.0938C23.6125 21.0938 23.1394 20.6206 23.1394 20.0391C23.1394 19.4575 23.6125 18.9844 24.1941 18.9844C24.7756 18.9844 25.2488 19.4575 25.2488 20.0391C25.2488 20.6206 24.7756 21.0938 24.1941 21.0938Z" fill="white"/>
<path d="M7.78784 11.7188C6.56013 11.7188 5.56128 12.7176 5.56128 13.9453C5.56128 15.173 6.56013 16.1719 7.78784 16.1719C9.01556 16.1719 10.0144 15.173 10.0144 13.9453C10.0144 12.7176 9.01556 11.7188 7.78784 11.7188ZM7.78784 15C7.2063 15 6.73315 14.5269 6.73315 13.9453C6.73315 13.3638 7.2063 12.8906 7.78784 12.8906C8.36938 12.8906 8.84253 13.3638 8.84253 13.9453C8.84253 14.5269 8.36938 15 7.78784 15Z" fill="white"/>
<path d="M18.7252 11.7188C17.4975 11.7188 16.4987 12.7176 16.4987 13.9453C16.4987 15.173 17.4975 16.1719 18.7252 16.1719C19.9529 16.1719 20.9518 15.173 20.9518 13.9453C20.9518 12.7176 19.9529 11.7188 18.7252 11.7188ZM18.7252 15C18.1437 15 17.6705 14.5269 17.6705 13.9453C17.6705 13.3638 18.1437 12.8906 18.7252 12.8906C19.3068 12.8906 19.7799 13.3638 19.7799 13.9453C19.7799 14.5269 19.3068 15 18.7252 15Z" fill="white"/>
<path d="M24.1941 11.7188C22.9664 11.7188 21.9675 12.7176 21.9675 13.9453C21.9675 15.173 22.9664 16.1719 24.1941 16.1719C25.4218 16.1719 26.4207 15.173 26.4207 13.9453C26.4207 12.7176 25.4218 11.7188 24.1941 11.7188ZM24.1941 15C23.6125 15 23.1394 14.5269 23.1394 13.9453C23.1394 13.3638 23.6125 12.8906 24.1941 12.8906C24.7756 12.8906 25.2488 13.3638 25.2488 13.9453C25.2488 14.5269 24.7756 15 24.1941 15Z" fill="white"/>
<path d="M13.2566 11.7188C12.0289 11.7188 11.03 12.7176 11.03 13.9453C11.03 15.173 12.0289 16.1719 13.2566 16.1719C14.4843 16.1719 15.4832 15.173 15.4832 13.9453C15.4832 12.7176 14.4843 11.7188 13.2566 11.7188ZM13.2566 15C12.675 15 12.2019 14.5269 12.2019 13.9453C12.2019 13.3638 12.675 12.8906 13.2566 12.8906C13.8381 12.8906 14.3113 13.3638 14.3113 13.9453C14.3113 14.5269 13.8381 15 13.2566 15Z" fill="white"/>
<path d="M7.38888 20.6032C7.16001 20.3744 6.78911 20.3744 6.56019 20.6032L4.65202 22.5115L3.99993 21.8594C3.77106 21.6306 3.40017 21.6306 3.17124 21.8594C2.94243 22.0882 2.94243 22.4592 3.17124 22.6881L4.2377 23.7544C4.34763 23.8643 4.49663 23.926 4.65202 23.926C4.80741 23.926 4.95642 23.8643 5.06634 23.7544L7.38888 21.4319C7.61769 21.2031 7.61769 20.8321 7.38888 20.6032Z" fill="white"/>
</g>
<defs>
<clipPath id="clip0_301_3383">
<rect width="30" height="30" fill="white"/>
</clipPath>
</defs>
</svg>
