<svg width="58" height="68" viewBox="0 0 58 68" fill="none" xmlns="http://www.w3.org/2000/svg">
<g clip-path="url(#clip0_3660_15)">
<path fill-rule="evenodd" clip-rule="evenodd" d="M13.4531 46.1162C8.64969 46.1162 4.74167 49.9668 4.74167 54.6993C4.74167 59.4311 8.65035 63.2822 13.4531 63.2822C18.256 63.2822 22.1651 59.4314 22.1651 54.6993C22.1651 49.9665 18.2568 46.1162 13.4531 46.1162ZM2.30397 9.66586L9.80443 2.27637V9.66586H2.30397ZM37.5998 6.36244H41.5511V24.2333H37.5998V6.36244ZM43.7382 24.8898V29.6055L39.7102 27.9883C39.628 27.9552 39.5355 27.9566 39.4538 27.9909L35.634 29.5964V24.8898H43.7382ZM50.7598 47.5291V50.5568H43.9886V47.5291H50.7598ZM25.0739 54.6993C25.0739 61.0121 19.8607 66.1483 13.4531 66.1483C7.04517 66.1483 1.83301 61.0123 1.83301 54.6993C1.83301 48.3856 7.0445 43.2504 13.4531 43.2504C19.8612 43.2503 25.0739 48.3858 25.0739 54.6993Z" fill="white"/>
<path fill-rule="evenodd" clip-rule="evenodd" d="M20.8322 54.6992C20.8322 58.7075 17.5222 61.9689 13.453 61.9689C9.38443 61.9689 6.07437 58.7074 6.07437 54.6992C6.07437 50.6905 9.38443 47.4291 13.453 47.4291C17.5222 47.429 20.8322 50.6905 20.8322 54.6992ZM22.8313 54.6992C22.8313 59.7935 18.6239 63.9385 13.453 63.9385C8.28272 63.9385 4.07525 59.7935 4.07525 54.6992C4.07525 49.6034 8.28272 45.4596 13.453 45.4596C18.6239 45.4596 22.8313 49.6034 22.8313 54.6992ZM50.0934 48.1854H44.6548V49.9001H50.0934V48.1854ZM52.0925 47.2007V50.885C52.0925 51.4284 51.6445 51.8696 51.0926 51.8696H43.6556C43.1037 51.8696 42.6557 51.4284 42.6557 50.885V47.2007C42.6557 46.657 43.1037 46.2158 43.6556 46.2158H51.0926C51.6443 46.216 52.0925 46.657 52.0925 47.2007ZM55.2215 27.2082V53.1039C55.2215 54.0218 54.4673 54.7674 53.5359 54.7674H26.4053C26.4053 54.7452 26.4065 54.7215 26.4065 54.6993C26.4065 51.9092 25.4921 49.3266 23.9449 47.2246V27.2082C23.9449 26.2917 24.7021 25.5461 25.6323 25.5461H34.3011V30.0939C34.3011 30.4248 34.4689 30.7335 34.7505 30.9161C35.0302 31.0985 35.3846 31.1301 35.6926 31L39.5933 29.3587L43.6938 31.0065C43.8151 31.055 43.9445 31.0788 44.0708 31.0788C44.2669 31.0788 44.461 31.0222 44.6296 30.9107C44.9055 30.7281 45.0707 30.4222 45.0707 30.0939V25.5461H53.5359C54.4674 25.5461 55.2215 26.2917 55.2215 27.2082ZM24.4075 54.6992C24.4075 60.6494 19.493 65.4917 13.453 65.4917C7.41236 65.4917 2.49912 60.6494 2.49912 54.6992C2.49912 48.7475 7.41236 43.9066 13.453 43.9066C19.493 43.9066 24.4075 48.7475 24.4075 54.6992ZM2.49912 45.0842H4.94561C7.22312 43.1251 10.1988 41.9371 13.4529 41.9371C15.9013 41.9371 18.192 42.6093 20.1471 43.7777H21.9457V40.0622H16.6353C16.0834 40.0622 15.6361 39.6208 15.6361 39.0774C15.6361 38.5339 16.0836 38.0928 16.6353 38.0928H21.9457V36.2704H16.6353C16.0834 36.2704 15.6361 35.8292 15.6361 35.2855C15.6361 34.7407 16.0836 34.3009 16.6353 34.3009H21.9457V29.3377H16.6353C16.0834 29.3377 15.6361 28.898 15.6361 28.3531C15.6361 27.8097 16.0836 27.3685 16.6353 27.3685H21.9457V27.2081C21.9457 26.6095 22.094 26.045 22.3567 25.546H16.6353C16.0834 25.546 15.6361 25.1048 15.6361 24.5611C15.6361 24.0177 16.0836 23.5765 16.6353 23.5765H36.2669V2.46905H11.1371V9.99404C11.1371 10.5387 10.6891 10.9786 10.1379 10.9786H2.49912V45.0842ZM3.91254 9.00919L9.13802 3.86093V9.00919H3.91254ZM38.2659 7.0186V23.5767H40.8847V7.0186H38.2659ZM36.3003 28.6024L39.1924 27.3869C39.4375 27.2832 39.7147 27.2816 39.9616 27.3801L43.0718 28.6288V25.5461H36.3003V28.6024ZM57.22 27.2082V53.1039C57.22 55.1075 55.5673 56.7369 53.536 56.7369H26.24C25.2471 62.808 19.8915 67.4612 13.453 67.4612C6.30999 67.4612 0.500133 61.7353 0.500133 54.6992C0.500133 51.834 1.46351 49.186 3.08802 47.0538H1.49923C0.947373 47.0538 0.5 46.6126 0.5 46.0689V9.99404C0.5 9.73408 0.60488 9.48317 0.792785 9.29804L9.43081 0.787408C9.61938 0.603462 9.87205 0.5 10.1379 0.5H37.2667C37.8179 0.5 38.2659 0.93958 38.2659 1.48446V5.04903H41.8839C42.4357 5.04903 42.8838 5.48926 42.8838 6.03401V23.5767H53.536C55.5671 23.5767 57.22 25.206 57.22 27.2082ZM13.0225 34.2025C13.441 34.5557 13.4906 35.1779 13.1305 35.5903L9.24743 40.0542C9.06073 40.2694 8.7874 40.3943 8.49954 40.3969C8.49581 40.3981 8.49195 40.3981 8.48888 40.3981C8.20543 40.3981 7.93463 40.2786 7.74539 40.071L5.55464 37.6674C5.18576 37.263 5.22027 36.6405 5.63073 36.277C6.04106 35.9131 6.67274 35.9473 7.04162 36.3517L8.47196 37.9193L11.6129 34.3087C11.973 33.8951 12.6033 33.8478 13.0225 34.2025ZM7.74539 29.3469L5.55464 26.9431C5.18576 26.5387 5.22027 25.9164 5.63073 25.5527C6.04106 25.1903 6.67274 25.223 7.04162 25.6274L8.47196 27.1962L11.6129 23.5844C11.973 23.1723 12.6033 23.1236 13.0225 23.4782C13.441 23.8312 13.4906 24.4536 13.1305 24.866L9.24743 29.3299C9.06073 29.5453 8.7874 29.67 8.49954 29.6739C8.49581 29.6739 8.49195 29.6739 8.48888 29.6739C8.20543 29.6739 7.93463 29.5559 7.74539 29.3469ZM7.74539 18.6228L5.55464 16.22C5.18576 15.8156 5.22027 15.1918 5.63073 14.8296C6.04106 14.4657 6.67274 14.5001 7.04162 14.9045L8.47196 16.4719L11.6129 12.8616C11.973 12.448 12.6033 12.4006 13.0225 12.754C13.441 13.1083 13.4906 13.7294 13.1305 14.143L9.24743 18.6058C9.06073 18.8211 8.7874 18.947 8.49954 18.9498C8.49581 18.9498 8.49195 18.9498 8.48888 18.9498C8.20543 18.9495 7.93463 18.8316 7.74539 18.6228ZM16.6354 18.6148C16.0836 18.6148 15.6362 18.1737 15.6362 17.63C15.6362 17.0864 16.0837 16.6453 16.6354 16.6453H32.4679C33.0203 16.6453 33.4672 17.0864 33.4672 17.63C33.4672 18.1737 33.0203 18.6148 32.4679 18.6148H16.6354ZM15.6362 13.837C15.6362 13.2935 16.0837 12.8524 16.6354 12.8524H32.4679C33.0203 12.8524 33.4672 13.2935 33.4672 13.837C33.4672 14.382 33.0203 14.8218 32.4679 14.8218H16.6354C16.0837 14.8218 15.6362 14.3818 15.6362 13.837Z" fill="white"/>
<path d="M17.3803 50.8158V49.5005H10.1777V50.8158H12.4695C13.322 50.8158 14.0416 51.3669 14.3127 52.1311H10.1777V53.4464H14.3127C14.1783 53.83 13.9289 54.1624 13.5989 54.3979C13.2689 54.6334 12.8743 54.7605 12.4695 54.7618H10.1777V56.3493L13.8354 60.023H15.6871L11.7584 56.0771H12.4695C13.2238 56.0761 13.9547 55.8139 14.5389 55.3346C15.1231 54.8554 15.5249 54.1885 15.6766 53.4464H17.3803V52.1311H15.6766C15.5762 51.6525 15.3694 51.2028 15.0716 50.8158H17.3803Z" fill="white"/>
</g>
<defs>
<clipPath id="clip0_3660_15">
<rect width="57" height="67" fill="white" transform="translate(0.5 0.5)"/>
</clipPath>
</defs>
</svg>
