<svg width="65" height="65" viewBox="0 0 65 65" fill="none" xmlns="http://www.w3.org/2000/svg">
<g clip-path="url(#clip0_3660_28)">
<path d="M38.7812 52.9557C38.7812 53.508 38.3335 53.9557 37.7812 53.9557H22.3442C21.792 53.9557 21.3442 53.508 21.3442 52.9557C21.3442 52.4035 21.792 51.9557 22.3442 51.9557H37.7812C38.3335 51.9557 38.7812 52.4035 38.7812 52.9557ZM22.3442 49.6152H32.6177C33.17 49.6152 33.6177 49.1675 33.6177 48.6152C33.6177 48.063 33.17 47.6152 32.6177 47.6152H22.3442C21.792 47.6152 21.3442 48.063 21.3442 48.6152C21.3442 49.1675 21.792 49.6152 22.3442 49.6152ZM12.9247 52.3831C13.1191 52.5726 13.3709 52.667 13.6227 52.667C13.8804 52.667 14.1376 52.5681 14.3332 52.3709L16.0801 50.6077C16.4687 50.2152 16.4659 49.5822 16.0735 49.1935C15.681 48.805 15.048 48.8079 14.6592 49.2001L13.6105 50.2587L13.3464 50.0012C12.9507 49.6156 12.3177 49.624 11.9324 50.0194C11.5469 50.4149 11.5549 51.048 11.9505 51.4334L12.9247 52.3831ZM18.613 47.7292V53.8419C18.613 54.6952 17.9186 55.3896 17.0652 55.3896H10.9526C10.0992 55.3896 9.40486 54.6952 9.40486 53.8419V47.7292C9.40486 46.8759 10.0992 46.1815 10.9526 46.1815H17.0652C17.9187 46.1815 18.613 46.8759 18.613 47.7292ZM16.613 48.1815H11.4049V53.3896H16.613V48.1815ZM18.613 37.3961V43.5087C18.613 44.3621 17.9186 45.0565 17.0652 45.0565H10.9526C10.0992 45.0565 9.40486 44.3621 9.40486 43.5087V37.3961C9.40486 36.5427 10.0992 35.8484 10.9526 35.8484H17.0652C17.9187 35.8484 18.613 36.5427 18.613 37.3961ZM16.613 37.8484H11.4049V43.0565H16.613V37.8484ZM12.9247 31.7171C13.1191 31.9066 13.3709 32.001 13.6227 32.001C13.8804 32.001 14.1376 31.9021 14.3332 31.7049L16.0801 29.9417C16.4687 29.5492 16.4659 28.9162 16.0735 28.5275C15.681 28.139 15.048 28.1419 14.6592 28.5341L13.6105 29.5927L13.3464 29.3352C12.9507 28.9496 12.3177 28.9579 11.9324 29.3534C11.5469 29.7489 11.5549 30.382 11.9505 30.7674L12.9247 31.7171ZM18.613 27.0631V33.1757C18.613 34.0291 17.9186 34.7235 17.0652 34.7235H10.9526C10.0992 34.7235 9.40486 34.0291 9.40486 33.1757V27.0631C9.40486 26.2097 10.0992 25.5154 10.9526 25.5154H17.0652C17.9187 25.5154 18.613 26.2097 18.613 27.0631ZM16.613 27.5154H11.4049V32.7235H16.613V27.5154ZM37.7812 41.6227H22.3441C21.7919 41.6227 21.3441 42.0705 21.3441 42.6227C21.3441 43.175 21.7919 43.6227 22.3441 43.6227H37.7812C38.3335 43.6227 38.7812 43.175 38.7812 42.6227C38.7812 42.0705 38.3335 41.6227 37.7812 41.6227ZM22.3441 39.2822H32.6177C33.17 39.2822 33.6177 38.8345 33.6177 38.2822C33.6177 37.73 33.17 37.2822 32.6177 37.2822H22.3441C21.7919 37.2822 21.3441 37.73 21.3441 38.2822C21.3441 38.8345 21.7919 39.2822 22.3441 39.2822ZM22.3441 28.9492H32.6177C33.17 28.9492 33.6177 28.5015 33.6177 27.9492C33.6177 27.397 33.17 26.9492 32.6177 26.9492H22.3441C21.7919 26.9492 21.3441 27.397 21.3441 27.9492C21.3441 28.5015 21.7919 28.9492 22.3441 28.9492ZM37.7812 31.2897H22.3441C21.7919 31.2897 21.3441 31.7375 21.3441 32.2897C21.3441 32.842 21.7919 33.2897 22.3441 33.2897H37.7812C38.3335 33.2897 38.7812 32.842 38.7812 32.2897C38.7812 31.7375 38.3335 31.2897 37.7812 31.2897ZM12.9247 42.0501C13.1191 42.2396 13.3709 42.334 13.6227 42.334C13.8804 42.334 14.1377 42.2351 14.3332 42.0377L16.0801 40.2745C16.4687 39.8821 16.4657 39.249 16.0734 38.8604C15.6811 38.4719 15.048 38.4746 14.6592 38.8671L13.6105 39.9257L13.3464 39.6682C12.9507 39.2826 12.3177 39.2909 11.9324 39.6864C11.5469 40.0819 11.5549 40.715 11.9505 41.1004L12.9247 42.0501ZM61.2661 20.2434C61.0637 20.5939 60.6882 20.8024 60.2702 20.8024C60.2379 20.8024 60.2052 20.801 60.1725 20.7986L59.1906 20.723L55.6541 26.8482L56.5076 29.6167C56.5895 29.8825 56.5571 30.1705 56.4179 30.4112L54.1502 34.3389C54.0176 34.5686 53.7992 34.7361 53.5431 34.8049C53.458 34.8277 53.371 34.8389 53.2844 34.8389C53.1102 34.8389 52.9377 34.7935 52.7844 34.7049L48.5531 32.2619C48.5324 32.2499 48.5131 32.2365 48.4935 32.2234V61.648C48.4935 63.1516 47.2702 64.3749 45.7667 64.3749H10.202C8.69836 64.3749 7.47511 63.1516 7.47511 61.648V60.4837H6.31086C4.80723 60.4837 3.58398 59.2605 3.58398 57.757V20.7575C3.58398 20.0185 3.86023 19.3516 4.38286 18.8291L12.3247 10.887C12.8474 10.3645 13.5141 10.0882 14.2531 10.0882H29.5872L31.4271 6.90149L28.4225 2.51424C28.1269 2.08224 28.0887 1.58487 28.3205 1.18374C28.5385 0.806119 28.957 0.593743 29.4141 0.628744L48.9071 2.13049C49.464 2.17349 49.969 2.56637 50.2225 2.93674L61.164 18.9131C61.4596 19.3449 61.4977 19.8421 61.2661 20.2434ZM31.0132 2.75787L40.9822 17.3141L54.7922 18.3781L44.2496 11.5531C43.786 11.253 43.6535 10.6339 43.9536 10.1702C44.2536 9.70674 44.8729 9.57387 45.3365 9.87424L58.2945 18.2629L48.604 4.11299L31.0132 2.75787ZM30.2635 12.9165L35.7575 20.9391C36.8692 22.5624 38.4936 23.5002 40.4552 23.6512L50.1504 24.3982L52.5669 20.2127L40.6795 19.297C40.1231 19.2541 39.618 18.8615 39.3642 18.4914L32.68 8.73112L30.2635 12.9165ZM11.4049 22.3905H16.613V17.1824H14.5375V18.3237L14.6591 18.201C15.0479 17.8085 15.6811 17.8057 16.0732 18.1942C16.4656 18.5829 16.4686 19.2161 16.08 19.6084L14.3331 21.3716C14.1377 21.569 13.8802 21.6679 13.6226 21.6679C13.3707 21.6679 13.119 21.5734 12.9246 21.384L12.5146 20.9844C12.3415 21.0215 12.1622 21.042 11.9782 21.042H11.4047L11.4049 22.3905ZM6.99811 19.0421H11.9784C12.2867 19.0421 12.5376 18.7912 12.5376 18.4829V13.5025L6.99811 19.0421ZM6.31073 58.4836H41.8755C42.2762 58.4836 42.6022 58.1576 42.6022 57.7569V25.8226L40.3017 25.6454C38.0979 25.4756 36.2184 24.5502 34.8032 22.9567H22.3442C21.792 22.9567 21.3442 22.509 21.3442 21.9567C21.3442 21.4045 21.792 20.9567 22.3442 20.9567H33.3456L31.7427 18.6161H22.3442C21.792 18.6161 21.3442 18.1684 21.3442 17.6161C21.3442 17.0639 21.792 16.6161 22.3442 16.6161H30.3731L28.5682 13.9805C28.1791 13.4122 28.1325 12.6974 28.437 12.0881H14.5376V15.1822H17.0654C17.9187 15.1822 18.6131 15.8766 18.6131 16.73V22.8426C18.6131 23.696 17.9187 24.3904 17.0654 24.3904H10.9526C10.0992 24.3904 9.40486 23.696 9.40486 22.8426V21.042H5.58386V57.7567C5.58386 58.1576 5.90986 58.4836 6.31073 58.4836ZM46.4935 61.648V26.1224L44.6022 25.9766V57.7567C44.6022 59.2602 43.379 60.4835 41.8755 60.4835H9.47511V61.6477C9.47511 62.0486 9.80111 62.3746 10.202 62.3746H45.7667C46.1675 62.3749 46.4935 62.0489 46.4935 61.648ZM54.4677 29.7889L53.8877 27.9075L51.9685 28.3459L50.419 31.0299L52.9182 32.4727L54.4677 29.7889ZM56.9796 20.5526L54.7779 20.383L51.8424 25.4674C51.5036 26.0542 50.8932 26.4041 50.225 26.4041C50.1756 26.4041 50.1262 26.4021 50.0765 26.3984L48.4936 26.2764V30.365L50.4547 26.9681C50.5937 26.7272 50.8269 26.5551 51.098 26.4932L53.9221 25.8481L56.9796 20.5526Z" fill="white"/>
</g>
<defs>
<clipPath id="clip0_3660_28">
<rect width="64" height="64" fill="white" transform="translate(0.5 0.5)"/>
</clipPath>
</defs>
</svg>
