<svg width="65" height="65" viewBox="0 0 65 65" fill="none" xmlns="http://www.w3.org/2000/svg">
<g clip-path="url(#clip0_3660_19)">
<mask id="mask0_3660_19" style="mask-type:luminance" maskUnits="userSpaceOnUse" x="0" y="0" width="65" height="65">
<path d="M64.5 0.5H0.5V64.5H64.5V0.5Z" fill="white"/>
</mask>
<g mask="url(#mask0_3660_19)">
<path d="M63.4587 5.90806L44.1698 0.545562C43.9508 0.484812 43.7192 0.484812 43.5002 0.545562L24.2139 5.90806C23.5488 6.09294 23.1594 6.78206 23.3444 7.44719C23.5293 8.11219 24.2187 8.50119 24.8835 8.31669L43.8349 3.04719L61.8738 8.06244V19.1124C61.8738 28.2538 57.1487 36.7097 49.4522 41.5096C48.6785 39.9303 47.5489 38.5251 46.1149 37.4012L41.7019 33.9427C40.4038 32.9254 38.7807 32.3652 37.1313 32.3652H29.3674C27.0312 28.3429 25.7988 23.7764 25.7988 19.1124V18.2098C25.7988 17.5196 25.239 16.9598 24.5488 16.9598C23.8585 16.9598 23.2988 17.5196 23.2988 18.2098V19.1124C23.2988 23.7387 24.4068 28.2777 26.5174 32.3652H20.8804C19.8313 32.3652 18.8139 32.5826 17.8563 33.0113L13.0764 35.1517C12.8582 34.9656 12.5757 34.8527 12.2664 34.8527H6.64979L2.22292 33.5752C1.55979 33.3842 0.866794 33.7663 0.675294 34.4297C0.48392 35.0931 0.866419 35.7859 1.52979 35.9773L5.22279 37.0429V49.3849H1.87642C1.18617 49.3849 0.626419 49.9447 0.626419 50.6349C0.626419 51.3252 1.18617 51.8849 1.87642 51.8849H12.2664C12.7312 51.8849 13.1359 51.6307 13.3513 51.2542L17.6352 53.5162C17.8252 53.6166 18.0208 53.7053 18.2188 53.7886V54.7686C18.2188 57.4848 20.4872 59.7532 23.2034 59.7532C25.9519 59.7532 28.188 57.5171 28.188 54.7686V54.3723H30.5447C33.1397 54.3723 34.9357 52.1776 34.8924 49.6897H35.357C36.4347 49.6897 37.3114 50.5664 37.3114 51.6441V63.2499C37.3114 63.9402 37.8712 64.4999 38.5614 64.4999C39.2517 64.4999 39.8114 63.9402 39.8114 63.2499V51.6441C39.8114 49.1879 37.8133 47.1897 35.357 47.1897H34.0479C33.2373 46.0878 31.9132 45.4158 30.5444 45.4158H28.4443C27.7097 45.4158 27.085 44.7962 27.085 44.0566C27.085 43.3072 27.6948 42.6974 28.4443 42.6974H38.0175L40.2742 44.4967C41.3413 45.3474 41.9534 46.6182 41.9534 47.9828V49.0928C41.9534 50.8883 43.1014 52.5364 44.7805 53.1669V57.7686C44.7805 58.4588 45.3403 59.0186 46.0305 59.0186C46.7208 59.0186 47.2805 58.4588 47.2805 57.7686V53.3306C49.2097 52.8857 50.6529 51.1553 50.6529 49.0929V46.7232C50.6529 45.7621 50.538 44.8196 50.318 43.9107C59.0135 38.7093 64.374 29.2996 64.374 19.1127V7.11269C64.3738 6.55106 63.9995 6.05844 63.4587 5.90806ZM11.0164 49.3851H7.72279V37.3527H11.0164V49.2679V49.3851ZM25.688 54.7686C25.688 56.1386 24.5734 57.2532 23.2034 57.2532C21.8504 57.2532 20.7188 56.1217 20.7188 54.7686V54.3637C20.8422 54.3699 20.9659 54.3729 21.0897 54.3729H25.688V54.7686ZM48.1527 49.0927C48.1527 50.1126 47.3228 50.9424 46.3029 50.9424C45.2999 50.9424 44.4533 50.0958 44.4533 49.0921V47.9829C44.4533 45.8528 43.498 43.8696 41.8327 42.5414L39.2729 40.5007C39.1503 40.4027 39.0117 40.3268 38.8642 40.2754C38.7173 40.2239 38.5618 40.1969 38.4049 40.1969H28.4444C26.7153 40.1969 25.248 41.3399 24.7587 42.9102C24.6458 43.2726 24.5848 43.6576 24.5848 44.0566C24.5848 46.1578 26.3437 47.9163 28.4444 47.9163H30.5444C31.5487 47.9163 32.3942 48.7574 32.3942 49.7661C32.3942 50.8599 31.7447 51.8724 30.5444 51.8724H21.09C20.2984 51.8724 19.5022 51.6751 18.8023 51.3057L13.5162 48.5146V37.6941L18.8778 35.2933C19.5118 35.0094 20.1855 34.8654 20.8803 34.8654H37.1312C38.224 34.8654 39.2997 35.2367 40.1598 35.9107L44.5729 39.3692C46.002 40.4892 47.0479 41.9634 47.6284 43.6213C47.6452 43.6884 47.6669 43.7548 47.6954 43.8198C47.9954 44.7432 48.1527 45.7204 48.1527 46.7231V49.0927Z" fill="white"/>
<path d="M47.1849 62.7713C46.7506 61.7282 45.2001 61.7803 44.8445 62.8581C44.4926 63.9243 45.6802 64.8932 46.6545 64.3321C47.1926 64.0223 47.42 63.3446 47.1849 62.7713Z" fill="white"/>
<path d="M43.8442 5.22461C43.1539 5.22461 42.5942 5.78436 42.5942 6.47461V7.41161C35.8244 8.04386 30.5078 13.7562 30.5078 20.6877C30.5078 21.1815 30.5347 21.6723 30.5877 22.1462C30.6472 22.677 31.0373 23.1115 31.5587 23.2274C32.0802 23.3433 32.6176 23.1152 32.8963 22.6594C33.7522 21.2604 35.1682 20.2909 36.7808 19.9995C39.0391 19.5927 41.3333 20.583 42.5936 22.4769V29.8954C42.5936 31.9407 44.2577 33.6048 46.3029 33.6048C48.3483 33.6048 50.0124 31.9407 50.0124 29.8954C50.0124 29.2052 49.4527 28.6454 48.7624 28.6454C48.0722 28.6454 47.5124 29.2052 47.5124 29.8954C47.5124 30.5623 46.9698 31.1048 46.3029 31.1048C45.6361 31.1048 45.0936 30.5623 45.0936 29.8954V22.4844C46.1534 20.8885 47.9608 19.9087 49.8868 19.9087C51.9022 19.9087 53.7366 20.9355 54.7936 22.6555C55.0731 23.1105 55.6111 23.3377 56.1326 23.2207C56.6538 23.1034 57.0431 22.668 57.1011 22.1369C57.1531 21.6615 57.1794 21.174 57.1794 20.6877C57.1794 13.7562 51.8633 8.04386 45.0943 7.41161V6.47461C45.0942 5.78436 44.5344 5.22461 43.8442 5.22461ZM54.5184 18.8222C53.1773 17.9118 51.5764 17.4087 49.8866 17.4087C47.5798 17.4087 45.3903 18.3872 43.8457 20.0422C42.2868 18.372 40.0833 17.4094 37.7892 17.4094C37.3074 17.4094 36.8214 17.4519 36.3368 17.5392C35.1892 17.7465 34.1111 18.193 33.1662 18.8353C34.0474 13.7398 38.5003 9.85249 43.8442 9.85249C49.1827 9.85261 53.6318 13.7335 54.5184 18.8222Z" fill="white"/>
<path d="M23.8551 13.5764C24.3084 13.8787 24.9199 13.848 25.3419 13.5036C25.7631 13.1599 25.9095 12.5609 25.7026 12.0601C25.2803 11.0374 23.7791 11.0591 23.3828 12.0886C23.1765 12.6242 23.3718 13.2605 23.8551 13.5764Z" fill="white"/>
</g>
</g>
<defs>
<clipPath id="clip0_3660_19">
<rect width="64" height="64" fill="white" transform="translate(0.5 0.5)"/>
</clipPath>
</defs>
</svg>
