<svg width="66" height="73" viewBox="0 0 66 73" fill="none" xmlns="http://www.w3.org/2000/svg">
<g clip-path="url(#clip0_3660_30)">
<path d="M59.2486 50.0344L37.4829 57.1298C37.0297 56.4847 36.4387 55.9057 35.7017 55.4424L24.4922 48.3966C22.3016 47.0198 20.0761 46.3784 17.4886 46.3784H2.26611C1.79375 46.3784 1.41064 46.7615 1.41064 47.2339V66.9418C1.41064 67.413 1.79176 67.7954 2.26298 67.7972L14.6546 67.8441C19.0103 68.1125 22.3179 69.4815 25.2366 70.6897C27.6882 71.7044 29.9238 72.6301 32.2328 72.6299C33.5027 72.6299 34.7955 72.3496 36.1574 71.6503L62.4522 58.1488C64.7739 56.9567 65.1875 54.4097 64.3961 52.51C63.6622 50.7487 61.7381 49.2221 59.2486 50.0344ZM12.2675 66.1241L3.12172 66.0894V48.0894H12.2675V66.1241ZM61.6709 56.6267L35.376 70.1281C32.2413 71.7375 29.5777 70.6348 25.891 69.1088C22.8427 67.847 19.3879 66.4169 14.7343 66.1349C14.7182 66.1339 14.7019 66.1335 14.6857 66.1334L13.9785 66.1306V48.0894H17.4885C19.7396 48.0894 21.6757 48.6473 23.5814 49.8452L34.7909 56.891C35.4737 57.3202 35.973 57.8741 36.3158 58.4802C36.3386 58.5354 36.3665 58.587 36.3992 58.6346C37.1479 60.0882 37.0324 61.8 36.4066 62.8109C35.7861 63.8125 34.8183 63.9522 33.6076 63.2139L22.7609 56.5989C22.3572 56.3524 21.831 56.4804 21.5852 56.8837C21.3391 57.2871 21.4667 57.8135 21.87 58.0594L32.7168 64.6745C34.7222 65.898 36.7416 65.5196 37.8613 63.7114C38.7099 62.3409 38.885 60.4202 38.2729 58.6715L59.7787 51.6608C61.3456 51.1507 62.3943 52.1536 62.8168 53.1677C63.3071 54.3447 63.1428 55.8709 61.6709 56.6267Z" fill="white"/>
<path d="M40.8057 41.6517C46.8733 41.6517 51.8097 36.7154 51.8097 30.6477C51.8097 24.58 46.8733 19.6436 40.8057 19.6436C34.738 19.6436 29.8018 24.58 29.8018 30.6477C29.8018 36.7154 34.7381 41.6517 40.8057 41.6517ZM40.8057 21.3547C45.9298 21.3547 50.0988 25.5236 50.0988 30.6478C50.0988 35.7721 45.9299 39.9409 40.8057 39.9409C35.6814 39.9409 31.5127 35.7721 31.5127 30.6478C31.5127 25.5236 35.6814 21.3547 40.8057 21.3547Z" fill="white"/>
<path d="M7.73299 15.4553L6.38919 19.8296L2.01489 21.1734C1.65574 21.2836 1.41064 21.6156 1.41064 21.9911C1.41064 22.3667 1.65588 22.6986 2.01489 22.8088L6.38919 24.1524L7.73299 28.5267C7.8432 28.8859 8.17512 29.131 8.55067 29.131C8.92622 29.131 9.25814 28.8858 9.36836 28.5267L10.7122 24.1524L15.0863 22.8088C15.4455 22.6986 15.6906 22.3667 15.6906 21.9911C15.6906 21.6156 15.4453 21.2836 15.0863 21.1734L10.7122 19.8296L9.36836 15.4553C9.25814 15.0962 8.92622 14.8511 8.55067 14.8511C8.17512 14.8511 7.8432 15.0963 7.73299 15.4553ZM9.20981 20.7654C9.29307 21.0364 9.50523 21.2487 9.77641 21.332L11.9219 21.9911L9.77641 22.6501C9.50537 22.7334 9.29307 22.9455 9.20981 23.2167L8.55067 25.3624L7.89153 23.2167C7.80827 22.9457 7.59611 22.7334 7.32493 22.6501L5.17941 21.9911L7.32493 21.332C7.59597 21.2487 7.80827 21.0365 7.89153 20.7654L8.55067 18.6197L9.20981 20.7654Z" fill="white"/>
<path d="M21.8877 31.1414C21.8877 37.536 23.9283 42.9181 27.7887 46.706C31.2256 50.0782 35.8485 51.9354 40.8061 51.9354C45.7637 51.9354 50.3864 50.0784 53.8233 46.706C57.6838 42.9181 59.7244 37.536 59.7244 31.1414C59.7244 22.5706 54.9607 14.7968 47.5127 11.0731L52.5705 2.04367C52.7189 1.77876 52.7158 1.45497 52.5622 1.19305C52.4087 0.930991 52.1278 0.77002 51.8241 0.77002H29.7879C29.4843 0.77002 29.2034 0.930991 29.0498 1.19305C28.8964 1.45497 28.8931 1.77862 29.0416 2.04367L34.0994 11.0731C26.6514 14.7968 21.8877 22.5706 21.8877 31.1414ZM31.2475 2.48095H50.3641L45.818 10.5971H35.7936L31.2475 2.48095ZM35.477 12.308H46.1348C53.357 15.6144 58.0133 22.9864 58.0133 31.1414C58.0133 44.2528 49.0935 50.2245 40.806 50.2245C32.5185 50.2245 23.5985 44.2528 23.5985 31.1414C23.5985 22.9864 28.2547 15.6145 35.477 12.308Z" fill="white"/>
<path d="M25.1248 8.50702L19.6683 6.83087L17.992 1.37427C17.8818 1.01511 17.5499 0.77002 17.1743 0.77002C16.7988 0.77002 16.4668 1.01525 16.3566 1.37427L14.6803 6.83087L9.22387 8.50702C8.86472 8.61723 8.61963 8.94915 8.61963 9.3247C8.61963 9.70026 8.86472 10.0322 9.22387 10.1424L14.6803 11.8187L16.3566 17.2753C16.4668 17.6344 16.7988 17.8795 17.1743 17.8795C17.5499 17.8795 17.8818 17.6343 17.992 17.2753L19.6683 11.8187L25.1248 10.1424C25.4841 10.0322 25.729 9.70026 25.729 9.3247C25.729 8.94915 25.4838 8.61723 25.1248 8.50702ZM18.7326 10.3163C18.4615 10.3996 18.2492 10.6117 18.1659 10.8829L17.1743 14.1109L16.1827 10.8829C16.0994 10.6119 15.8873 10.3996 15.6161 10.3163L12.3883 9.3247L15.6161 8.33322C15.8871 8.24995 16.0994 8.03779 16.1827 7.76661L17.1743 4.53864L18.1659 7.76661C18.2492 8.03765 18.4614 8.24995 18.7326 8.33322L21.9604 9.3247L18.7326 10.3163Z" fill="white"/>
</g>
<defs>
<clipPath id="clip0_3660_30">
<rect width="65" height="72" fill="white" transform="translate(0.5 0.5)"/>
</clipPath>
</defs>
</svg>
