<svg width="55" height="66" viewBox="0 0 55 66" fill="none" xmlns="http://www.w3.org/2000/svg">
<g clip-path="url(#clip0_3660_50)">
<path d="M38.8102 20.3895C38.3507 20.6724 38.221 21.2536 38.5206 21.6874C40.0153 23.8526 40.3919 27.3643 37.6928 29.9523L25.3239 41.6122L14.1347 31.0645L17.0935 31.0738H17.0968C17.4292 31.0738 17.7397 30.9167 17.9239 30.6553L19.9797 27.7369L24.4457 35.7249C24.8275 36.4078 25.8716 36.3863 26.2216 35.6885L28.5367 31.0738H32.4161C32.9646 31.0738 33.4093 30.6538 33.4093 30.1359C33.4093 29.6179 32.9646 29.1979 32.4161 29.1979H27.9082C27.5244 29.1979 27.175 29.4068 27.0106 29.7343L25.2759 33.1921L20.9564 25.4659C20.6077 24.8421 19.6715 24.7872 19.2511 25.3843L16.5659 29.1963L12.2645 29.1828C9.01668 24.9664 12.1292 18.7444 17.9322 18.7444C20.791 18.7444 23.3309 20.3625 24.4031 22.8668C24.7368 23.6465 25.9107 23.6473 26.2447 22.8668C27.7947 19.2463 32.1795 17.8224 35.6629 19.3376C36.1611 19.5544 36.7511 19.3486 36.9806 18.8781C37.2101 18.4076 36.9922 17.8505 36.494 17.6338C32.7101 15.9878 27.8857 17.0015 25.3239 20.5395C23.6769 18.2648 20.9421 16.8686 17.9322 16.8686C9.97295 16.8686 5.98869 25.9462 11.5515 31.2799L24.6221 43.6012C25.0098 43.9667 25.6377 43.9668 26.0256 43.6012L39.1022 31.2741C42.0811 28.4182 42.5262 24.0546 40.1848 20.6628C39.885 20.2291 39.2695 20.1067 38.8102 20.3895Z" fill="white"/>
<path d="M48.2721 42.7183C49.5157 40.7545 50.1469 38.902 50.1469 37.2025V10.0983C50.1469 9.71022 49.8938 9.36232 49.5104 9.22288L25.6802 0.56256C25.4506 0.479147 25.1964 0.479147 24.9667 0.56256L1.13645 9.22288C0.75294 9.36219 0.5 9.71022 0.5 10.0983V28.3282C0.5 28.8462 0.944697 29.2661 1.49322 29.2661C2.04174 29.2661 2.48644 28.8462 2.48644 28.3282V10.7423L25.3234 2.44292L48.1604 10.7423V37.2026C48.1604 38.5901 47.5997 40.1572 46.4962 41.8669C45.757 41.5801 44.9826 41.3588 44.1806 41.2102C45.2901 39.6387 45.8531 38.2566 45.8531 37.0923V13.0878C45.8531 12.7027 45.6039 12.3568 45.2246 12.2154L25.6882 4.9308C25.4538 4.84351 25.193 4.84351 24.9586 4.9308L5.42226 12.2154C5.04298 12.3568 4.79375 12.7027 4.79375 13.0878V37.0922C4.79375 41.3292 12.1597 47.2331 15.3266 49.5746C18.8669 52.1923 22.4353 54.3728 24.8054 55.7411C25.1241 55.925 25.5241 55.9243 25.8415 55.7411C26.7071 55.2413 27.9379 54.5134 29.3523 53.6255C29.4159 54.4427 29.5682 55.237 29.8002 55.9998C27.7466 57.2685 26.1008 58.1953 25.3236 58.6236C18.4285 54.8223 2.48644 44.7524 2.48644 37.2026V32.4158C2.48644 31.8978 2.04174 31.4779 1.49322 31.4779C0.944697 31.4779 0.5 31.8978 0.5 32.4158V37.2025C0.5 41.59 4.63722 46.8668 12.7968 52.8863C18.7448 57.2741 24.7762 60.4917 24.8366 60.5237C25.1387 60.6843 25.508 60.6843 25.8104 60.5237C25.8955 60.4785 27.7899 59.4694 30.5209 57.7955C33.6968 64.0954 41.8683 66.3706 48.1043 62.8932C48.5767 62.6298 48.7335 62.0547 48.4546 61.6087C48.1757 61.1627 47.5665 61.0147 47.0944 61.278C40.1729 65.1377 31.3049 60.4211 31.3049 52.7553C31.3049 47.3021 36.0031 42.8654 41.7778 42.8654C50.5149 42.8654 55.3274 52.3807 50.0661 58.8016C49.7304 59.2113 49.81 59.8004 50.2438 60.1173C50.6778 60.4343 51.3015 60.359 51.6371 59.9495C56.1586 54.4312 54.6267 46.3986 48.2721 42.7183ZM29.4103 51.3263C27.8183 52.3545 26.3809 53.2207 25.3233 53.8396C23.0141 52.4893 19.7683 50.4764 16.5512 48.0977C9.33925 42.7651 6.78019 38.8362 6.78019 37.0922V13.7259L25.3234 6.81166L43.8666 13.7259V37.0923C43.8666 38.0325 43.1708 39.4155 41.9079 40.9913C35.4796 40.9279 30.1632 45.4813 29.4103 51.3263Z" fill="white"/>
<path d="M47.948 49.8752H44.8277V46.9286C44.8277 46.4107 44.383 45.9907 43.8345 45.9907H39.721C39.1725 45.9907 38.7278 46.4107 38.7278 46.9286V49.8752H35.6075C35.059 49.8752 34.6143 50.2952 34.6143 50.8132V54.6977C34.6143 55.2157 35.059 55.6356 35.6075 55.6356H38.7278V58.5822C38.7278 59.1002 39.1725 59.5201 39.721 59.5201H43.8345C44.383 59.5201 44.8277 59.1002 44.8277 58.5822V55.6356H47.948C48.4965 55.6356 48.9412 55.2157 48.9412 54.6977V50.8132C48.9412 50.2952 48.4965 49.8752 47.948 49.8752ZM46.9548 53.7599H43.8345C43.286 53.7599 42.8413 54.1798 42.8413 54.6978V57.6444H40.7142V54.6978C40.7142 54.1798 40.2695 53.7599 39.721 53.7599H36.6007V51.7512H39.721C40.2695 51.7512 40.7142 51.3313 40.7142 50.8133V47.8667H42.8413V50.8133C42.8413 51.3313 43.286 51.7512 43.8345 51.7512H46.9548V53.7599Z" fill="white"/>
</g>
<defs>
<clipPath id="clip0_3660_50">
<rect width="54" height="65" fill="white" transform="translate(0.5 0.5)"/>
</clipPath>
</defs>
</svg>
