<svg width="65" height="65" viewBox="0 0 65 65" fill="none" xmlns="http://www.w3.org/2000/svg">
<g clip-path="url(#clip0_3660_36)">
<path d="M63.3192 13.0105H54.8301V1.8441C54.8301 1.53393 54.724 1.22375 54.4057 0.91357C54.1935 0.706785 53.8751 0.5 53.4507 0.5H1.77336C1.13668 0.603393 0.5 1.12036 0.5 1.8441V58.6066C0.5 61.9152 3.25895 64.5 6.54847 64.5H58.3319C61.7275 64.5 64.4865 61.8118 64.4865 58.5032V14.2512C64.5926 13.6309 64.062 13.0105 63.3192 13.0105ZM62.0459 58.3998C62.0459 60.3643 60.4542 61.9152 58.438 61.9152C56.4219 61.9152 54.8301 60.3643 54.8301 58.3998V35.7569C54.8301 35.0331 54.2996 34.5162 53.5568 34.5162C52.814 34.5162 52.2834 35.0331 52.2834 35.7569V58.5032V58.6066C52.2834 59.8473 52.7079 60.9847 53.4507 61.9152H6.65459C4.74454 61.9152 3.15284 60.3643 3.15284 58.5032V3.08481H52.2834V24.5905C52.2834 25.3142 52.814 25.8312 53.5568 25.8312C54.2996 25.8312 54.8301 25.3142 54.8301 24.5905V15.5953H62.0459V58.3998Z" fill="white"/>
<path d="M8.56432 10.7358V19.4208C8.56432 20.1445 9.09489 20.6615 9.83769 20.6615C10.5805 20.6615 11.111 20.1445 11.111 19.4208V10.7358H12.0661C12.8089 10.7358 13.3394 10.2189 13.3394 9.49511C13.3394 8.77136 12.8089 8.25439 12.0661 8.25439H7.6093C6.86651 8.25439 6.33594 8.77136 6.33594 9.49511C6.33594 10.2189 6.86651 10.7358 7.6093 10.7358H8.56432Z" fill="white"/>
<path d="M15.8866 20.765H20.3434C21.0862 20.765 21.6168 20.248 21.6168 19.5243C21.6168 18.8005 21.0862 18.2836 20.3434 18.2836H17.16V15.8022H19.0701C19.8128 15.8022 20.3434 15.2852 20.3434 14.5614C20.3434 13.8377 19.8128 13.3207 19.0701 13.3207H17.16V10.8393H20.3434C21.0862 10.8393 21.6168 10.3224 21.6168 9.59862C21.6168 8.87487 21.0862 8.35791 20.3434 8.35791H15.8866C15.1438 8.35791 14.6133 8.87487 14.6133 9.59862V19.6277C14.6133 20.248 15.25 20.765 15.8866 20.765Z" fill="white"/>
<path d="M24.269 20.7651C25.0118 20.7651 25.5423 20.2482 25.5423 19.5244V15.8023H26.0729L28.3013 20.1448C28.5135 20.5583 28.938 20.8685 29.4685 20.8685C29.6808 20.8685 29.893 20.8685 29.9991 20.7651C30.6358 20.4549 30.848 19.7312 30.5297 19.1108L28.6196 15.4921C29.7869 14.8717 30.6358 13.631 30.6358 12.1835C30.6358 10.1157 28.938 8.46143 26.8157 8.46143H24.269C23.5262 8.46143 22.9956 8.9784 22.9956 9.70214V19.7312C22.9956 20.2482 23.5262 20.7651 24.269 20.7651ZM25.5423 10.736H26.8157C27.5585 10.736 28.0891 11.253 28.0891 11.9768C28.0891 12.7005 27.5585 13.2175 26.8157 13.2175H25.5423V10.736Z" fill="white"/>
<path d="M33.1825 20.7651C33.9253 20.7651 34.4559 20.2481 34.4559 19.5244V13.0106L35.4109 14.1479C35.6232 14.4581 36.0476 14.5615 36.3659 14.5615C36.6843 14.5615 37.1087 14.3547 37.321 14.1479L38.276 13.0106V19.5244C38.276 20.2481 38.8066 20.7651 39.5494 20.7651C40.2922 20.7651 40.8227 20.2481 40.8227 19.5244V9.49529C40.8227 8.97833 40.5044 8.46137 39.9738 8.35798C39.4432 8.15119 38.9127 8.35798 38.5943 8.77155L36.3659 11.3563L34.1376 8.77155C33.8192 8.35798 33.2887 8.15119 32.7581 8.35798C32.2275 8.56476 31.9092 8.97833 31.9092 9.49529V19.5244C31.9092 20.2481 32.5459 20.7651 33.1825 20.7651Z" fill="white"/>
<path d="M46.6589 13.6308L45.2795 13.1138C44.6428 12.9071 44.3244 12.1833 44.6428 11.563C44.7489 11.2528 44.9611 11.046 45.2795 10.9426C45.5978 10.8392 45.9162 10.8392 46.2345 10.9426L46.8712 11.2528C47.5079 11.563 48.2507 11.2528 48.569 10.529C48.8873 9.90868 48.569 9.18493 47.8262 8.87475L47.1895 8.56457C46.2345 8.151 45.1734 8.151 44.3244 8.56457C43.3694 8.97814 42.6266 9.70189 42.3083 10.529C41.4594 12.3901 42.4144 14.5613 44.3244 15.3885L45.7039 15.9054C46.3406 16.1122 46.6589 16.836 46.3406 17.4563C46.2345 17.7665 46.0223 17.9733 45.7039 18.0767C45.3856 18.1801 45.0672 18.1801 44.7489 18.0767L44.1122 17.7665C43.4755 17.4563 42.7327 17.7665 42.4144 18.4903C42.0961 19.1106 42.4144 19.8344 43.1572 20.1445L43.7939 20.4547C44.2183 20.6615 44.7489 20.7649 45.2795 20.7649C45.81 20.7649 46.2345 20.6615 46.7651 20.4547C47.7201 20.0411 48.4629 19.3174 48.7812 18.4903C49.524 16.6292 48.569 14.4579 46.6589 13.6308Z" fill="white"/>
<path d="M16.4167 28.416H8.98877V35.6535H16.4167V28.416Z" fill="white"/>
<path d="M16.4167 42.8911H8.98877V51.1625H16.4167V42.8911Z" fill="white"/>
<path d="M46.5528 27.1753H21.6161C20.8733 27.1753 20.3428 27.6923 20.3428 28.416C20.3428 29.1398 20.8733 29.6567 21.6161 29.6567H46.5528C47.2956 29.6567 47.8262 29.1398 47.8262 28.416C47.8262 27.6923 47.2956 27.1753 46.5528 27.1753Z" fill="white"/>
<path d="M46.5528 42.064H21.6161C20.8733 42.064 20.3428 42.581 20.3428 43.3048C20.3428 44.0285 20.8733 44.5455 21.6161 44.5455H46.5528C47.2956 44.5455 47.8262 44.0285 47.8262 43.3048C47.8262 42.581 47.2956 42.064 46.5528 42.064Z" fill="white"/>
<path d="M21.6161 35.2398H40.8227C41.5655 35.2398 42.0961 34.7228 42.0961 33.9991C42.0961 33.2753 41.5655 32.7583 40.8227 32.7583H21.6161C20.8733 32.7583 20.3428 33.2753 20.3428 33.9991C20.3428 34.7228 20.8733 35.2398 21.6161 35.2398Z" fill="white"/>
<path d="M40.8227 47.7505H21.6161C20.8733 47.7505 20.3428 48.2675 20.3428 48.9912C20.3428 49.7149 20.8733 50.2319 21.6161 50.2319H40.8227C41.5655 50.2319 42.0961 49.7149 42.0961 48.9912C42.0961 48.2675 41.4594 47.7505 40.8227 47.7505Z" fill="white"/>
<path d="M53.4501 28.9331C52.7073 28.9331 52.1768 29.4501 52.1768 30.1738C52.1768 30.8976 52.7073 31.4145 53.4501 31.4145C54.1929 31.4145 54.7235 30.8976 54.7235 30.1738C54.7235 29.4501 54.1929 28.9331 53.4501 28.9331Z" fill="white"/>
</g>
<defs>
<clipPath id="clip0_3660_36">
<rect width="64" height="64" fill="white" transform="translate(0.5 0.5)"/>
</clipPath>
</defs>
</svg>
