<svg width="47" height="65" viewBox="0 0 47 65" fill="none" xmlns="http://www.w3.org/2000/svg">
<path d="M40.1458 64.7556H6.85417C5.03697 64.7533 3.29479 63.9566 2.00983 62.5403C0.724873 61.124 0.00207325 59.2037 0 57.2007V7.55481C0.00207325 5.55185 0.724873 3.63159 2.00983 2.21528C3.29479 0.798971 5.03697 0.00228518 6.85417 0H40.1458C41.963 0.00228518 43.7052 0.798971 44.9902 2.21528C46.2751 3.63159 46.9979 5.55185 47 7.55481V57.2007C46.9979 59.2037 46.2751 61.124 44.9902 62.5403C43.7052 63.9566 41.963 64.7533 40.1458 64.7556ZM6.85417 2.15852C5.55619 2.16023 4.31182 2.72932 3.39401 3.74095C2.4762 4.75258 1.95989 6.12415 1.95833 7.55481V57.2007C1.95989 58.6314 2.4762 60.003 3.39401 61.0146C4.31182 62.0262 5.55619 62.5953 6.85417 62.597H40.1458C41.4438 62.5953 42.6882 62.0262 43.606 61.0146C44.5238 60.003 45.0401 58.6314 45.0417 57.2007V7.55481C45.0401 6.12415 44.5238 4.75258 43.606 3.74095C42.6882 2.72932 41.4438 2.16023 40.1458 2.15852H6.85417Z" fill="white"/>
<path d="M26.4375 60.4385H20.5625C19.7834 60.4385 19.0363 60.0974 18.4854 59.4902C17.9345 58.883 17.625 58.0594 17.625 57.2007V52.8837C17.625 52.025 17.9345 51.2014 18.4854 50.5942C19.0363 49.987 19.7834 49.6459 20.5625 49.6459H26.4375C27.2166 49.6459 27.9637 49.987 28.5146 50.5942C29.0655 51.2014 29.375 52.025 29.375 52.8837V57.2007C29.375 58.0594 29.0655 58.883 28.5146 59.4902C27.9637 60.0974 27.2166 60.4385 26.4375 60.4385ZM20.5625 51.8044C20.3028 51.8044 20.0538 51.9181 19.8701 52.1205C19.6865 52.3229 19.5833 52.5974 19.5833 52.8837V57.2007C19.5833 57.487 19.6865 57.7615 19.8701 57.9639C20.0538 58.1663 20.3028 58.28 20.5625 58.28H26.4375C26.6972 58.28 26.9462 58.1663 27.1299 57.9639C27.3135 57.7615 27.4167 57.487 27.4167 57.2007V52.8837C27.4167 52.5974 27.3135 52.3229 27.1299 52.1205C26.9462 51.9181 26.6972 51.8044 26.4375 51.8044H20.5625Z" fill="white"/>
<path d="M12.729 60.4385H6.854C6.07493 60.4385 5.32777 60.0974 4.77688 59.4902C4.22599 58.883 3.9165 58.0594 3.9165 57.2007V52.8837C3.9165 52.025 4.22599 51.2014 4.77688 50.5942C5.32777 49.987 6.07493 49.6459 6.854 49.6459H12.729C13.5081 49.6459 14.2552 49.987 14.8061 50.5942C15.357 51.2014 15.6665 52.025 15.6665 52.8837V57.2007C15.6665 58.0594 15.357 58.883 14.8061 59.4902C14.2552 60.0974 13.5081 60.4385 12.729 60.4385ZM6.854 51.8044C6.59431 51.8044 6.34526 51.9181 6.16163 52.1205C5.978 52.3229 5.87484 52.5974 5.87484 52.8837V57.2007C5.87484 57.487 5.978 57.7615 6.16163 57.9639C6.34526 58.1663 6.59431 58.28 6.854 58.28H12.729C12.9887 58.28 13.2378 58.1663 13.4214 57.9639C13.605 57.7615 13.7082 57.487 13.7082 57.2007V52.8837C13.7082 52.5974 13.605 52.3229 13.4214 52.1205C13.2378 51.9181 12.9887 51.8044 12.729 51.8044H6.854Z" fill="white"/>
<path d="M40.146 60.4385H34.271C33.4919 60.4385 32.7448 60.0974 32.1939 59.4902C31.643 58.883 31.3335 58.0595 31.3335 57.2008V39.9326C31.3335 39.0739 31.643 38.2504 32.1939 37.6431C32.7448 37.0359 33.4919 36.6948 34.271 36.6948H40.146C40.9251 36.6948 41.6722 37.0359 42.2231 37.6431C42.774 38.2504 43.0835 39.0739 43.0835 39.9326V57.2008C43.0835 58.0595 42.774 58.883 42.2231 59.4902C41.6722 60.0974 40.9251 60.4385 40.146 60.4385ZM34.271 38.8533C34.0113 38.8533 33.7622 38.967 33.5786 39.1694C33.395 39.3719 33.2918 39.6464 33.2918 39.9326V57.2008C33.2918 57.487 33.395 57.7615 33.5786 57.9639C33.7622 58.1663 34.0113 58.28 34.271 58.28H40.146C40.4057 58.28 40.6547 58.1663 40.8384 57.9639C41.022 57.7615 41.1252 57.487 41.1252 57.2008V39.9326C41.1252 39.6464 41.022 39.3719 40.8384 39.1694C40.6547 38.967 40.4057 38.8533 40.146 38.8533H34.271Z" fill="white"/>
<path d="M26.4375 47.4874H20.5625C19.7834 47.4874 19.0363 47.1463 18.4854 46.5391C17.9345 45.9319 17.625 45.1084 17.625 44.2496V39.9326C17.625 39.0739 17.9345 38.2503 18.4854 37.6431C19.0363 37.0359 19.7834 36.6948 20.5625 36.6948H26.4375C27.2166 36.6948 27.9637 37.0359 28.5146 37.6431C29.0655 38.2503 29.375 39.0739 29.375 39.9326V44.2496C29.375 45.1084 29.0655 45.9319 28.5146 46.5391C27.9637 47.1463 27.2166 47.4874 26.4375 47.4874ZM20.5625 38.8533C20.3028 38.8533 20.0538 38.967 19.8701 39.1694C19.6865 39.3718 19.5833 39.6464 19.5833 39.9326V44.2496C19.5833 44.5359 19.6865 44.8104 19.8701 45.0128C20.0538 45.2152 20.3028 45.3289 20.5625 45.3289H26.4375C26.6972 45.3289 26.9462 45.2152 27.1299 45.0128C27.3135 44.8104 27.4167 44.5359 27.4167 44.2496V39.9326C27.4167 39.6464 27.3135 39.3718 27.1299 39.1694C26.9462 38.967 26.6972 38.8533 26.4375 38.8533H20.5625Z" fill="white"/>
<path d="M12.729 47.4874H6.854C6.07493 47.4874 5.32777 47.1463 4.77688 46.5391C4.22599 45.9319 3.9165 45.1084 3.9165 44.2496V39.9326C3.9165 39.0739 4.22599 38.2503 4.77688 37.6431C5.32777 37.0359 6.07493 36.6948 6.854 36.6948H12.729C13.5081 36.6948 14.2552 37.0359 14.8061 37.6431C15.357 38.2503 15.6665 39.0739 15.6665 39.9326V44.2496C15.6665 45.1084 15.357 45.9319 14.8061 46.5391C14.2552 47.1463 13.5081 47.4874 12.729 47.4874ZM6.854 38.8533C6.59431 38.8533 6.34526 38.967 6.16163 39.1694C5.978 39.3718 5.87484 39.6464 5.87484 39.9326V44.2496C5.87484 44.5359 5.978 44.8104 6.16163 45.0128C6.34526 45.2152 6.59431 45.3289 6.854 45.3289H12.729C12.9887 45.3289 13.2378 45.2152 13.4214 45.0128C13.605 44.8104 13.7082 44.5359 13.7082 44.2496V39.9326C13.7082 39.6464 13.605 39.3718 13.4214 39.1694C13.2378 38.967 12.9887 38.8533 12.729 38.8533H6.854Z" fill="white"/>
<path d="M26.4375 34.5363H20.5625C19.7834 34.5363 19.0363 34.1952 18.4854 33.588C17.9345 32.9808 17.625 32.1572 17.625 31.2985V26.9815C17.625 26.1228 17.9345 25.2992 18.4854 24.692C19.0363 24.0848 19.7834 23.7437 20.5625 23.7437H26.4375C27.2166 23.7437 27.9637 24.0848 28.5146 24.692C29.0655 25.2992 29.375 26.1228 29.375 26.9815V31.2985C29.375 32.1572 29.0655 32.9808 28.5146 33.588C27.9637 34.1952 27.2166 34.5363 26.4375 34.5363ZM20.5625 25.9022C20.3028 25.9022 20.0538 26.0159 19.8701 26.2183C19.6865 26.4207 19.5833 26.6953 19.5833 26.9815V31.2985C19.5833 31.5848 19.6865 31.8593 19.8701 32.0617C20.0538 32.2641 20.3028 32.3778 20.5625 32.3778H26.4375C26.6972 32.3778 26.9462 32.2641 27.1299 32.0617C27.3135 31.8593 27.4167 31.5848 27.4167 31.2985V26.9815C27.4167 26.6953 27.3135 26.4207 27.1299 26.2183C26.9462 26.0159 26.6972 25.9022 26.4375 25.9022H20.5625Z" fill="white"/>
<path d="M12.729 34.5363H6.854C6.07493 34.5363 5.32777 34.1952 4.77688 33.588C4.22599 32.9808 3.9165 32.1572 3.9165 31.2985V26.9815C3.9165 26.1228 4.22599 25.2992 4.77688 24.692C5.32777 24.0848 6.07493 23.7437 6.854 23.7437H12.729C13.5081 23.7437 14.2552 24.0848 14.8061 24.692C15.357 25.2992 15.6665 26.1228 15.6665 26.9815V31.2985C15.6665 32.1572 15.357 32.9808 14.8061 33.588C14.2552 34.1952 13.5081 34.5363 12.729 34.5363ZM6.854 25.9022C6.59431 25.9022 6.34526 26.0159 6.16163 26.2183C5.978 26.4207 5.87484 26.6953 5.87484 26.9815V31.2985C5.87484 31.5848 5.978 31.8593 6.16163 32.0617C6.34526 32.2641 6.59431 32.3778 6.854 32.3778H12.729C12.9887 32.3778 13.2378 32.2641 13.4214 32.0617C13.605 31.8593 13.7082 31.5848 13.7082 31.2985V26.9815C13.7082 26.6953 13.605 26.4207 13.4214 26.2183C13.2378 26.0159 12.9887 25.9022 12.729 25.9022H6.854Z" fill="white"/>
<path d="M40.146 34.5363H34.271C33.4919 34.5363 32.7448 34.1952 32.1939 33.588C31.643 32.9808 31.3335 32.1572 31.3335 31.2985V26.9815C31.3335 26.1228 31.643 25.2992 32.1939 24.692C32.7448 24.0848 33.4919 23.7437 34.271 23.7437H40.146C40.9251 23.7437 41.6722 24.0848 42.2231 24.692C42.774 25.2992 43.0835 26.1228 43.0835 26.9815V31.2985C43.0835 32.1572 42.774 32.9808 42.2231 33.588C41.6722 34.1952 40.9251 34.5363 40.146 34.5363ZM34.271 25.9022C34.0113 25.9022 33.7622 26.0159 33.5786 26.2183C33.395 26.4207 33.2918 26.6953 33.2918 26.9815V31.2985C33.2918 31.5848 33.395 31.8593 33.5786 32.0617C33.7622 32.2641 34.0113 32.3778 34.271 32.3778H40.146C40.4057 32.3778 40.6547 32.2641 40.8384 32.0617C41.022 31.8593 41.1252 31.5848 41.1252 31.2985V26.9815C41.1252 26.6953 41.022 26.4207 40.8384 26.2183C40.6547 26.0159 40.4057 25.9022 40.146 25.9022H34.271Z" fill="white"/>
<path d="M40.1457 19.4267H6.854C6.07493 19.4267 5.32777 19.0856 4.77688 18.4784C4.22599 17.8712 3.9165 17.0476 3.9165 16.1889V7.55482C3.9165 6.69611 4.22599 5.87257 4.77688 5.26537C5.32777 4.65817 6.07493 4.31705 6.854 4.31705H40.1457C40.9247 4.31705 41.6719 4.65817 42.2228 5.26537C42.7737 5.87257 43.0832 6.69611 43.0832 7.55482V16.1889C43.0832 17.0476 42.7737 17.8712 42.2228 18.4784C41.6719 19.0856 40.9247 19.4267 40.1457 19.4267ZM6.854 6.47557C6.59431 6.47557 6.34526 6.58927 6.16163 6.79167C5.978 6.99407 5.87484 7.26859 5.87484 7.55482V16.1889C5.87484 16.4751 5.978 16.7497 6.16163 16.9521C6.34526 17.1545 6.59431 17.2682 6.854 17.2682H40.1457C40.4054 17.2682 40.6544 17.1545 40.838 16.9521C41.0217 16.7497 41.1248 16.4751 41.1248 16.1889V7.55482C41.1248 7.26859 41.0217 6.99407 40.838 6.79167C40.6544 6.58927 40.4054 6.47557 40.1457 6.47557H6.854Z" fill="white"/>
<path d="M37.2085 16.1889C36.4294 16.1889 35.6823 15.8478 35.1314 15.2406C34.5805 14.6334 34.271 13.8098 34.271 12.9511V10.7926C34.271 9.93388 34.5805 9.11033 35.1314 8.50313C35.6823 7.89593 36.4294 7.55481 37.2085 7.55481C37.9876 7.55481 38.7347 7.89593 39.2856 8.50313C39.8365 9.11033 40.146 9.93388 40.146 10.7926V12.9511C40.146 13.8098 39.8365 14.6334 39.2856 15.2406C38.7347 15.8478 37.9876 16.1889 37.2085 16.1889ZM37.2085 9.71333C36.9488 9.71333 36.6997 9.82704 36.5161 10.0294C36.3325 10.2318 36.2293 10.5064 36.2293 10.7926V12.9511C36.2293 13.2373 36.3325 13.5119 36.5161 13.7143C36.6997 13.9167 36.9488 14.0304 37.2085 14.0304C37.4682 14.0304 37.7172 13.9167 37.9009 13.7143C38.0845 13.5119 38.1877 13.2373 38.1877 12.9511V10.7926C38.1877 10.5064 38.0845 10.2318 37.9009 10.0294C37.7172 9.82704 37.4682 9.71333 37.2085 9.71333Z" fill="white"/>
</svg>
