<svg width="64" height="64" viewBox="0 0 64 64" fill="none" xmlns="http://www.w3.org/2000/svg">
<g clip-path="url(#clip0_3854_175)">
<path d="M12.826 15.9277C13.3837 15.9277 13.9414 15.4816 13.9414 14.8124V6.33606C13.9414 4.55156 15.3913 3.10166 17.1758 3.10166H23.0869C23.6446 3.10166 24.2022 2.65553 24.2022 1.98634C24.2022 1.31716 23.7561 0.871033 23.0869 0.871033H17.1758C14.276 0.871033 11.8223 3.21319 11.8223 6.22453V14.8124C11.8223 15.4816 12.2684 15.9277 12.826 15.9277Z" fill="white"/>
<path d="M34.5744 47.9372C34.5744 47.3796 34.1283 46.8219 33.4591 46.8219H18.1794V44.7028C18.1794 44.1451 17.7332 43.5875 17.064 43.5875C16.5064 43.5875 15.9487 44.0336 15.9487 44.7028V47.9372C15.9487 48.4949 16.3949 49.0525 17.064 49.0525H33.4591C34.1283 49.0525 34.5744 48.6064 34.5744 47.9372Z" fill="white"/>
<path d="M55.3195 32.3229L48.0699 25.0733V6.3361C48.0699 3.43629 45.7278 0.982605 42.7164 0.982605H28.3289C27.7713 0.982605 27.2136 1.42873 27.2136 2.09792C27.2136 2.7671 27.6597 3.21323 28.3289 3.21323H42.7164C44.5009 3.21323 45.9509 4.66313 45.9509 6.44763V36.338C45.9509 36.8956 46.397 37.4533 47.0662 37.4533C47.6238 37.4533 48.1815 37.0072 48.1815 36.338V28.1962L53.8696 33.8843C55.6541 35.6688 56.6578 38.1225 56.6578 40.6877V62.9939H35.2439V54.5176C35.2439 51.5062 37.6975 49.0525 40.7089 49.0525C41.2665 49.0525 41.8242 48.6064 41.8242 47.9372C41.8242 47.6026 41.7127 47.3796 41.4896 47.1565L32.4556 38.1225C31.0057 36.6726 31.0057 34.3304 32.4556 32.8805C33.9055 31.4306 36.2476 31.4306 37.6975 32.8805L49.8544 45.0374C50.3006 45.4835 50.9698 45.4835 51.4159 45.0374C51.862 44.5913 51.862 43.9221 51.4159 43.5875L43.8318 35.8919V6.3361C43.8318 5.77845 43.3856 5.22079 42.7164 5.22079H37.363C36.8053 5.22079 36.2476 5.66691 36.2476 6.3361C36.2476 6.89376 35.8015 7.45141 35.1323 7.45141H24.4253C23.8677 7.45141 23.31 7.00529 23.31 6.3361C23.31 5.77845 22.8639 5.22079 22.1947 5.22079H16.8412C16.2836 5.22079 15.7259 5.66691 15.7259 6.3361V17.0431H3.2344C1.44991 17.0431 0 18.493 0 20.2775V39.4609C0 41.2454 1.44991 42.6953 3.2344 42.6953H11.8223V52.287C11.8223 55.1868 14.1645 57.6404 17.1758 57.6404H33.2363V63.9977C33.2363 64.5554 33.6824 65.113 34.3516 65.113H57.8847C58.4423 65.113 59 64.6669 59 63.9977V40.6877C58.7769 37.5648 57.5501 34.5535 55.3195 32.3229ZM3.2344 19.1622H37.363V21.2813H2.23062V20.166C2.23062 19.6083 2.67675 19.1622 3.2344 19.1622ZM29.8904 55.4098H17.1758C15.3913 55.4098 13.9414 53.9599 13.9414 52.1754V42.5837H30.0019C30.5595 42.5837 31.1172 42.1376 31.1172 41.4684C31.1172 40.9108 30.6711 40.3531 30.0019 40.3531H3.2344C2.67675 40.3531 2.11909 39.907 2.11909 39.2378V29.6461H31.0057C31.5633 29.6461 32.121 29.2 32.121 28.5308C32.121 27.9732 31.6749 27.4155 31.0057 27.4155H2.23062V23.1773H37.4745V28.5308C37.4745 29.0885 37.9206 29.6461 38.5898 29.6461C39.1474 29.6461 39.7051 29.2 39.7051 28.5308V14.924C39.7051 14.3663 39.259 13.8087 38.5898 13.8087C38.0321 13.8087 37.4745 14.2548 37.4745 14.924V17.0431H18.1796V7.45141H21.5255C21.9716 8.67826 23.1985 9.57051 24.5369 9.57051H35.2439C36.5822 9.57051 37.8091 8.67826 38.2552 7.45141H41.6011V33.8843L39.3705 31.4306C37.0284 29.0885 33.3478 29.0885 31.1172 31.4306C28.8866 33.7728 28.775 37.4533 31.1172 39.6839L38.5898 47.1565C35.3554 48.1603 33.2363 51.0601 33.2363 54.406V55.2983H29.8904V55.4098Z" fill="white"/>
<path d="M10.7066 31.9883H5.3531C4.79545 31.9883 4.23779 32.4344 4.23779 33.1036V37.3417C4.23779 37.8994 4.68392 38.4571 5.3531 38.4571H10.7066C11.2643 38.4571 11.8219 38.0109 11.8219 37.3417V33.1036C11.8219 32.4344 11.2643 31.9883 10.7066 31.9883ZM9.70282 36.2264H6.46842V34.1073H9.70282V36.2264Z" fill="white"/>
<path d="M33.1246 52.2869C33.1246 50.5024 31.6747 49.0525 29.8902 49.0525C28.1057 49.0525 26.6558 50.5024 26.6558 52.2869C26.6558 54.0714 28.1057 55.5213 29.8902 55.5213C31.6747 55.4098 33.1246 53.9599 33.1246 52.2869ZM29.8902 53.2907C29.3325 53.2907 28.7749 52.8446 28.7749 52.1754C28.7749 51.6177 29.221 51.0601 29.8902 51.0601C30.4478 51.0601 31.0055 51.5062 31.0055 52.1754C31.0055 52.8446 30.5594 53.2907 29.8902 53.2907Z" fill="white"/>
</g>
<defs>
<clipPath id="clip0_3854_175">
<rect width="64" height="64" fill="white"/>
</clipPath>
</defs>
</svg>
