<svg width="62" height="62" viewBox="0 0 62 62" fill="none" xmlns="http://www.w3.org/2000/svg">
<path d="M32 20H30C28.897 20 28 20.897 28 22V30C28 31.103 28.897 32 30 32H32C33.103 32 34 31.103 34 30V22C34 20.897 33.103 20 32 20ZM30 30V22H32L32.001 30H30Z" fill="white"/>
<path d="M31 34C29.346 34 28 35.346 28 37C28 38.654 29.346 40 31 40C32.654 40 34 38.654 34 37C34 35.346 32.654 34 31 34ZM31 38C30.449 38 30 37.552 30 37C30 36.448 30.449 36 31 36C31.551 36 32 36.448 32 37C32 37.552 31.551 38 31 38Z" fill="white"/>
<path d="M59 0H3C1.346 0 0 1.346 0 3V36C0 37.103 0.897 38 2 38H4V51C4 53.757 6.243 56 9 56H23V60H17V62H45V60H38V56H53C55.757 56 58 53.757 58 51V38H60C61.103 38 62 37.103 62 36V3C62 1.346 60.654 0 59 0ZM3 2H59C59.551 2 60 2.448 60 3V8H2V3C2 2.448 2.449 2 3 2ZM36 60H25V56H36V60ZM53 54H9C7.346 54 6 52.654 6 51V48H56V51C56 52.654 54.654 54 53 54ZM56 46H6V38H13.442C13.158 38.573 13 39.203 13 39.845C13 42.136 14.864 44 17.155 44H44.844C47.136 44 49 42.136 49 39.845C49 39.204 48.842 38.573 48.558 38H56V46ZM47 39.845C47 41.033 46.033 42 44.845 42H17.155C15.967 42 15 41.033 15 39.845C15 39.468 15.1 39.096 15.289 38.769L28.867 15.233C29.305 14.472 30.123 14 31 14C31.877 14 32.695 14.472 33.133 15.232L46.711 38.768C46.9 39.096 47 39.468 47 39.845ZM47.424 36L34.866 14.232C34.071 12.855 32.59 12 31 12C29.41 12 27.929 12.855 27.134 14.232L14.576 36H2V10H60V36H47.424Z" fill="white"/>
<path d="M4 4H6V6H4V4Z" fill="white"/>
<path d="M8 4H10V6H8V4Z" fill="white"/>
<path d="M12 4H14V6H12V4Z" fill="white"/>
<path d="M46 24H58V26H46V24Z" fill="white"/>
<path d="M46 20H58V22H46V20Z" fill="white"/>
<path d="M46 13H58V15H46V13Z" fill="white"/>
<path d="M46 28H58V30H46V28Z" fill="white"/>
<path d="M56 32H58V34H56V32Z" fill="white"/>
<path d="M52 32H54V34H52V32Z" fill="white"/>
<path d="M4 24H12V26H4V24Z" fill="white"/>
<path d="M4 14H18V16H4V14Z" fill="white"/>
<path d="M4 18H14V20H4V18Z" fill="white"/>
<path d="M4 28H12V30H4V28Z" fill="white"/>
<path d="M14 24H16V26H14V24Z" fill="white"/>
<path d="M14 28H16V30H14V28Z" fill="white"/>
<path d="M18 24H20V26H18V24Z" fill="white"/>
<path d="M50 50H52V52H50V50Z" fill="white"/>
<path d="M46 50H48V52H46V50Z" fill="white"/>
<path d="M42 50H44V52H42V50Z" fill="white"/>
</svg>
