<svg width="64" height="64" viewBox="0 0 64 64" fill="none" xmlns="http://www.w3.org/2000/svg">
<path d="M59 43.521V23.819L56.288 16.586C56.056 15.967 55.582 15.485 55 15.221V4C55 2.346 53.654 1 52 1H4C2.346 1 1 2.346 1 4V44C1 45.087 1.586 46.031 2.453 46.557C1.534 48.164 1 50.019 1 52C1 58.065 5.935 63 12 63H20C24.933 63 29.254 59.681 30.579 55H33.42C34.746 59.681 39.067 63 43.999 63H51.999C58.064 63 62.999 58.065 62.999 52C63 48.592 61.441 45.541 59 43.521ZM55 41.426V25H57V42.214C56.366 41.889 55.698 41.625 55 41.426ZM51 25H53V41.051C52.67 41.021 52.338 41 52 41H51V25ZM56.557 23H51.443L53.585 17.287C53.714 16.943 54.285 16.943 54.414 17.287L56.557 23ZM4 3H52C52.551 3 53 3.449 53 4V9H3V4C3 3.449 3.449 3 4 3ZM3 44V11H53V15.221C52.418 15.484 51.944 15.966 51.712 16.585L49 23.819V41H44C40.642 41 37.572 42.542 35.532 45H28.468C26.428 42.542 23.357 41 20 41H12C8.633 41 5.619 42.524 3.6 44.914C3.248 44.759 3 44.409 3 44ZM41 49H40.01C40.938 47.766 42.406 47 44 47H52C54.757 47 57 49.243 57 52C57 54.757 54.757 57 52 57H44C42.406 57 40.938 56.234 40.01 55H41C42.103 55 43 54.103 43 53V51C43 49.897 42.103 49 41 49ZM41 51L41.001 53H23V51H41ZM23 55H23.99C23.062 56.234 21.594 57 20 57H12C9.243 57 7 54.757 7 52C7 49.243 9.243 47 12 47H20C21.594 47 23.062 47.766 23.99 49H23C21.897 49 21 49.897 21 51V53C21 54.103 21.897 55 23 55ZM30.579 49C30.381 48.301 30.117 47.632 29.793 47H34.205C33.881 47.632 33.617 48.301 33.419 49H30.579ZM20 61H12C7.038 61 3 56.963 3 52C3 47.037 7.038 43 12 43H20C23.841 43 27.225 45.462 28.479 49H26.298C25.147 46.587 22.711 45 20 45H12C8.14 45 5 48.141 5 52C5 55.859 8.14 59 12 59H20C22.71 59 25.147 57.413 26.298 55H28.479C27.225 58.538 23.841 61 20 61ZM52 61H44C40.159 61 36.775 58.538 35.521 55H37.702C38.853 57.413 41.289 59 44 59H52C55.86 59 59 55.859 59 52C59 48.141 55.86 45 52 45H44C41.29 45 38.853 46.587 37.702 49H35.521C36.774 45.462 40.158 43 44 43H52C56.962 43 61 47.037 61 52C61 56.963 56.962 61 52 61Z" fill="white"/>
<path d="M5 5H7V7H5V5Z" fill="white"/>
<path d="M9 5H11V7H9V5Z" fill="white"/>
<path d="M13 5H15V7H13V5Z" fill="white"/>
<path d="M21 13H5V25H21V13ZM19 23H7V15H19V23Z" fill="white"/>
<path d="M21 27H5V39H21V27ZM19 37H7V29H19V37Z" fill="white"/>
<path d="M23 13H25V15H23V13Z" fill="white"/>
<path d="M27 13H47V15H27V13Z" fill="white"/>
<path d="M23 17H47V19H23V17Z" fill="white"/>
<path d="M23 21H27V23H23V21Z" fill="white"/>
<path d="M29 21H47V23H29V21Z" fill="white"/>
<path d="M45 35H47V37H45V35Z" fill="white"/>
<path d="M23 35H43V37H23V35Z" fill="white"/>
<path d="M23 31H47V33H23V31Z" fill="white"/>
<path d="M43 27H47V29H43V27Z" fill="white"/>
<path d="M23 27H41V29H23V27Z" fill="white"/>
</svg>
